<?xml version="1.0" encoding="utf-8"?>
<!-- Generator: Adobe Illustrator 27.4.0, SVG Export Plug-In . SVG Version: 6.00 Build 0)  -->
<svg version="1.1" id="Camada_1" xmlns="http://www.w3.org/2000/svg" xmlns:xlink="http://www.w3.org/1999/xlink" x="0px" y="0px"
	 viewBox="0 0 1080 1080" style="enable-background:new 0 0 1080 1080;" xml:space="preserve">
<style type="text/css">
	.st0{fill:#1D345B;}
	.st1{fill:#FFFFFF;}
	.st2{fill:#2483C6;}
	.st3{fill:url(#SVGID_1_);}
</style>
<g>
	<rect y="0" class="st0" width="1080" height="1080"/>
	<g>
		<path class="st1" d="M162.16,859.45c-11.17,0-22.08-2.14-32.73-6.41c-10.65-4.27-20.11-10.22-28.39-17.84
			c1.05-1.05,2.37-2.43,3.94-4.14c1.58-1.71,3.22-3.38,4.93-5.03c1.71-1.64,3.48-3.06,5.32-4.24c1.84-1.18,3.55-1.77,5.13-1.77
			c1.44,0,3.48,0.76,6.11,2.27c2.63,1.51,5.78,3.22,9.46,5.13c3.68,1.91,7.89,3.62,12.62,5.13c4.73,1.51,9.92,2.27,15.58,2.27
			c2.76,0,5.75-0.26,8.97-0.79c3.22-0.52,6.28-1.41,9.17-2.66c2.89-1.25,5.29-2.99,7.2-5.22c1.9-2.23,2.86-5.06,2.86-8.48
			c0-3.94-1.25-7.06-3.75-9.37c-2.5-2.3-5.75-4.07-9.76-5.32c-4.01-1.25-8.61-2.23-13.8-2.96c-5.19-0.72-10.45-1.54-15.77-2.47
			c-5.32-0.92-10.58-2.1-15.77-3.55c-5.19-1.44-9.79-3.58-13.8-6.41c-4.01-2.83-7.26-6.47-9.76-10.94
			c-2.5-4.47-3.75-10.12-3.75-16.96c0-7.75,1.61-14.29,4.83-19.62c3.22-5.32,7.39-9.66,12.52-13.01c5.13-3.35,10.94-5.78,17.45-7.3
			c6.51-1.51,13.04-2.27,19.62-2.27c9.99,0,20.01,1.71,30.07,5.12c10.06,3.42,19.03,8.35,26.91,14.79c-1.18,1.18-2.56,2.7-4.14,4.53
			c-1.58,1.84-3.25,3.58-5.03,5.22c-1.77,1.65-3.58,3.09-5.42,4.34c-1.84,1.25-3.68,1.87-5.52,1.87c-1.18,0-3.03-0.59-5.52-1.77
			c-2.5-1.18-5.46-2.46-8.87-3.84c-3.42-1.38-7.2-2.66-11.34-3.85c-4.14-1.18-8.51-1.77-13.11-1.77c-2.37,0-5.03,0.23-7.98,0.69
			c-2.96,0.46-5.72,1.25-8.28,2.37c-2.56,1.12-4.7,2.66-6.41,4.63c-1.71,1.97-2.56,4.53-2.56,7.69c0,3.68,1.25,6.57,3.75,8.67
			c2.5,2.1,5.78,3.75,9.86,4.93c4.07,1.18,8.71,2.14,13.9,2.86c5.19,0.72,10.51,1.55,15.97,2.47c5.45,0.92,10.78,2.14,15.97,3.65
			c5.19,1.51,9.82,3.72,13.9,6.6c4.07,2.89,7.36,6.6,9.86,11.14c2.5,4.53,3.75,10.29,3.75,17.25c0,8.02-1.74,14.85-5.22,20.5
			c-3.48,5.65-7.98,10.25-13.51,13.8c-5.52,3.55-11.73,6.11-18.63,7.69C176.06,858.66,169.12,859.45,162.16,859.45z"/>
		<path class="st1" d="M292.08,857.28h-28.59V719.27h18.73c2.63,0,4.93,0.99,6.9,2.96c1.97,1.97,2.96,4.27,2.96,6.9V857.28z"/>
		<path class="st1" d="M396.77,859.45c-11.17,0-22.08-2.14-32.73-6.41c-10.65-4.27-20.11-10.22-28.39-17.84
			c1.05-1.05,2.37-2.43,3.94-4.14c1.58-1.71,3.22-3.38,4.93-5.03c1.71-1.64,3.48-3.06,5.32-4.24c1.84-1.18,3.55-1.77,5.13-1.77
			c1.44,0,3.48,0.76,6.11,2.27c2.63,1.51,5.78,3.22,9.46,5.13c3.68,1.91,7.89,3.62,12.62,5.13c4.73,1.51,9.92,2.27,15.58,2.27
			c2.76,0,5.75-0.26,8.97-0.79c3.22-0.52,6.28-1.41,9.17-2.66c2.89-1.25,5.29-2.99,7.2-5.22c1.9-2.23,2.86-5.06,2.86-8.48
			c0-3.94-1.25-7.06-3.75-9.37c-2.5-2.3-5.75-4.07-9.76-5.32c-4.01-1.25-8.61-2.23-13.8-2.96c-5.19-0.72-10.45-1.54-15.77-2.47
			c-5.32-0.92-10.58-2.1-15.77-3.55c-5.19-1.44-9.79-3.58-13.8-6.41c-4.01-2.83-7.26-6.47-9.76-10.94
			c-2.5-4.47-3.75-10.12-3.75-16.96c0-7.75,1.61-14.29,4.83-19.62c3.22-5.32,7.39-9.66,12.52-13.01c5.13-3.35,10.94-5.78,17.45-7.3
			c6.51-1.51,13.04-2.27,19.62-2.27c9.99,0,20.01,1.71,30.07,5.12c10.06,3.42,19.03,8.35,26.91,14.79c-1.18,1.18-2.56,2.7-4.14,4.53
			c-1.58,1.84-3.25,3.58-5.03,5.22c-1.77,1.65-3.58,3.09-5.42,4.34c-1.84,1.25-3.68,1.87-5.52,1.87c-1.18,0-3.03-0.59-5.52-1.77
			c-2.5-1.18-5.46-2.46-8.87-3.84c-3.42-1.38-7.2-2.66-11.34-3.85c-4.14-1.18-8.51-1.77-13.11-1.77c-2.37,0-5.03,0.23-7.98,0.69
			c-2.96,0.46-5.72,1.25-8.28,2.37c-2.56,1.12-4.7,2.66-6.41,4.63c-1.71,1.97-2.56,4.53-2.56,7.69c0,3.68,1.25,6.57,3.75,8.67
			c2.5,2.1,5.78,3.75,9.86,4.93c4.07,1.18,8.71,2.14,13.9,2.86c5.19,0.72,10.51,1.55,15.97,2.47c5.45,0.92,10.78,2.14,15.97,3.65
			c5.19,1.51,9.82,3.72,13.9,6.6c4.07,2.89,7.36,6.6,9.86,11.14c2.5,4.53,3.75,10.29,3.75,17.25c0,8.02-1.74,14.85-5.22,20.5
			c-3.48,5.65-7.98,10.25-13.51,13.8c-5.52,3.55-11.73,6.11-18.63,7.69C410.67,858.66,403.73,859.45,396.77,859.45z"/>
		<path class="st2" d="M567.7,859.45c-9.99,0-19.45-1.74-28.39-5.22c-8.94-3.48-16.76-8.38-23.46-14.69
			c-6.7-6.31-12-13.8-15.87-22.48c-3.88-8.67-5.82-18.14-5.82-28.39s1.94-19.75,5.82-28.49c3.88-8.74,9.17-16.3,15.87-22.67
			c6.7-6.37,14.52-11.34,23.46-14.89c8.94-3.55,18.4-5.32,28.39-5.32c10.78,0,21.22,2.2,31.35,6.61
			c10.12,4.4,18.73,10.74,25.83,19.02c-1.18,0.79-2.73,1.91-4.63,3.35c-1.91,1.45-3.88,2.86-5.91,4.24
			c-2.04,1.38-4.04,2.6-6.01,3.65c-1.97,1.05-3.68,1.58-5.13,1.58c-1.45,0-3.19-0.62-5.22-1.87c-2.04-1.25-4.5-2.66-7.39-4.24
			c-2.89-1.58-6.21-2.99-9.96-4.24c-3.75-1.25-8.05-1.87-12.91-1.87c-6.31,0-12.16,1.18-17.55,3.55c-5.39,2.37-10.06,5.55-14,9.56
			c-3.94,4.01-7.03,8.77-9.27,14.29c-2.24,5.52-3.35,11.44-3.35,17.74s1.15,12.19,3.45,17.64c2.3,5.46,5.49,10.15,9.56,14.1
			c4.07,3.94,8.84,7.07,14.29,9.36c5.45,2.3,11.34,3.45,17.65,3.45c4.73,0,8.94-0.59,12.62-1.77c3.68-1.18,6.9-2.53,9.66-4.04
			c2.76-1.51,5.16-2.86,7.2-4.04c2.04-1.18,3.78-1.77,5.22-1.77c1.44,0,3.12,0.49,5.03,1.48c1.9,0.99,3.84,2.17,5.82,3.55
			c1.97,1.38,3.88,2.79,5.72,4.24c1.84,1.45,3.35,2.56,4.53,3.35c-3.42,3.94-7.29,7.49-11.63,10.65c-4.34,3.15-8.97,5.82-13.9,7.99
			c-4.93,2.17-10.02,3.81-15.28,4.93C578.21,858.89,572.95,859.45,567.7,859.45z"/>
		<path class="st2" d="M694.07,857.28h-28.59V719.27h27.01c3.02,0,5.75,0.79,8.18,2.37c2.43,1.58,4.37,3.68,5.82,6.31l33.52,65.46
			l33.52-65.46c1.45-2.63,3.38-4.73,5.82-6.31c2.43-1.58,5.15-2.37,8.18-2.37h17.55l-65.46,128.15l-45.54-91.68V857.28z
			 M814.54,857.28h-28.59v-78.86l28.59-55.2V857.28z"/>
		<path class="st2" d="M962.4,743.91h-99.37v-24.64h115.93l-7.49,18.34c-0.79,1.84-2.01,3.35-3.65,4.54
			C966.18,743.32,964.37,743.91,962.4,743.91z"/>
		<path class="st1" d="M935.98,800.3h-72.95v-24.05h89.11l-7.1,17.74c-0.79,1.84-2.01,3.35-3.65,4.53
			C939.76,799.71,937.95,800.3,935.98,800.3z"/>
		<path class="st2" d="M962.99,857.28h-99.96v-24.64h115.93l-6.7,18.14c-0.66,1.97-1.84,3.55-3.55,4.73
			C967,856.69,965.09,857.28,962.99,857.28z"/>
	</g>
	<g>
		<g>
			<path class="st1" d="M110.72,914.25c-1.36,0-2.67-0.21-3.91-0.63c-1.24-0.42-2.22-0.96-2.94-1.62l0.95-1.99
				c0.68,0.6,1.55,1.09,2.61,1.48c1.06,0.39,2.16,0.59,3.3,0.59c1.04,0,1.88-0.12,2.53-0.36c0.65-0.24,1.12-0.57,1.43-0.98
				c0.31-0.42,0.46-0.89,0.46-1.42c0-0.61-0.2-1.11-0.6-1.48c-0.4-0.37-0.92-0.68-1.56-0.91c-0.64-0.23-1.34-0.43-2.11-0.6
				c-0.77-0.17-1.54-0.37-2.31-0.6c-0.78-0.23-1.48-0.52-2.12-0.88c-0.64-0.36-1.15-0.84-1.55-1.44c-0.39-0.6-0.59-1.38-0.59-2.34
				c0-0.92,0.24-1.77,0.73-2.54c0.49-0.77,1.24-1.4,2.25-1.87c1.01-0.47,2.3-0.7,3.87-0.7c1.04,0,2.07,0.14,3.09,0.41
				s1.91,0.66,2.66,1.18l-0.84,2.04c-0.77-0.51-1.58-0.88-2.43-1.11c-0.85-0.23-1.68-0.34-2.48-0.34c-1.01,0-1.83,0.13-2.48,0.38
				c-0.65,0.26-1.12,0.6-1.42,1.02c-0.3,0.43-0.45,0.9-0.45,1.43c0,0.63,0.2,1.13,0.6,1.51s0.92,0.67,1.56,0.89
				c0.64,0.22,1.34,0.42,2.11,0.6c0.77,0.18,1.54,0.38,2.31,0.6c0.78,0.22,1.48,0.51,2.12,0.87c0.64,0.36,1.15,0.83,1.55,1.43
				s0.59,1.36,0.59,2.3c0,0.9-0.25,1.74-0.74,2.52s-1.26,1.4-2.29,1.87C113.58,914.02,112.29,914.25,110.72,914.25z"/>
			<path class="st1" d="M121.38,914.05v-17.89h2.56v17.89H121.38z"/>
			<path class="st1" d="M134.52,914.25c-1.36,0-2.67-0.21-3.91-0.63c-1.24-0.42-2.22-0.96-2.94-1.62l0.95-1.99
				c0.68,0.6,1.55,1.09,2.61,1.48c1.06,0.39,2.16,0.59,3.3,0.59c1.04,0,1.88-0.12,2.53-0.36c0.65-0.24,1.12-0.57,1.43-0.98
				c0.31-0.42,0.46-0.89,0.46-1.42c0-0.61-0.2-1.11-0.6-1.48c-0.4-0.37-0.92-0.68-1.56-0.91c-0.64-0.23-1.34-0.43-2.11-0.6
				c-0.77-0.17-1.54-0.37-2.31-0.6c-0.78-0.23-1.48-0.52-2.12-0.88c-0.64-0.36-1.15-0.84-1.55-1.44c-0.39-0.6-0.59-1.38-0.59-2.34
				c0-0.92,0.24-1.77,0.73-2.54c0.49-0.77,1.24-1.4,2.25-1.87c1.01-0.47,2.3-0.7,3.87-0.7c1.04,0,2.07,0.14,3.09,0.41
				s1.91,0.66,2.66,1.18l-0.84,2.04c-0.77-0.51-1.58-0.88-2.43-1.11c-0.85-0.23-1.68-0.34-2.48-0.34c-1.01,0-1.83,0.13-2.48,0.38
				c-0.65,0.26-1.12,0.6-1.42,1.02c-0.3,0.43-0.45,0.9-0.45,1.43c0,0.63,0.2,1.13,0.6,1.51s0.92,0.67,1.56,0.89
				c0.64,0.22,1.34,0.42,2.11,0.6c0.77,0.18,1.54,0.38,2.31,0.6c0.78,0.22,1.48,0.51,2.12,0.87c0.64,0.36,1.15,0.83,1.55,1.43
				s0.59,1.36,0.59,2.3c0,0.9-0.25,1.74-0.74,2.52s-1.26,1.4-2.29,1.87C137.38,914.02,136.08,914.25,134.52,914.25z"/>
			<path class="st1" d="M148.73,914.05v-15.67h-6.14v-2.22h14.8v2.22h-6.13v15.67H148.73z"/>
			<path class="st1" d="M162.74,911.83h10.43v2.22h-12.99v-17.89h12.63v2.22h-10.07V911.83z M162.51,903.88h9.2v2.17h-9.2V903.88z"
				/>
			<path class="st1" d="M177.31,914.05v-17.89h2.1l8.03,13.52h-1.12l7.92-13.52h2.1l0.03,17.89h-2.45l-0.03-14.03h0.59l-7.06,11.86
				h-1.18l-7.11-11.86h0.64v14.03H177.31z"/>
			<path class="st1" d="M199.01,914.05l8.1-17.89h2.53l8.13,17.89h-2.68l-7.23-16.46h1.02l-7.23,16.46H199.01z M202.46,909.58
				l0.69-2.04h10.07l0.74,2.04H202.46z"/>
			<path class="st1" d="M227.3,914.05v-17.89h7.54c1.91,0,3.59,0.38,5.05,1.12s2.59,1.8,3.4,3.14c0.81,1.35,1.21,2.91,1.21,4.68
				s-0.41,3.33-1.21,4.68c-0.81,1.35-1.94,2.39-3.4,3.14c-1.46,0.75-3.14,1.12-5.05,1.12H227.3z M229.86,911.83h4.83
				c1.48,0,2.76-0.28,3.85-0.84c1.08-0.56,1.92-1.35,2.52-2.36s0.9-2.19,0.9-3.51c0-1.35-0.3-2.52-0.9-3.53
				c-0.6-1-1.44-1.79-2.52-2.35c-1.08-0.56-2.36-0.84-3.85-0.84h-4.83V911.83z"/>
			<path class="st1" d="M250.97,911.83h10.43v2.22h-12.99v-17.89h12.63v2.22h-10.07V911.83z M250.74,903.88h9.2v2.17h-9.2V903.88z"
				/>
			<path class="st1" d="M280.5,914.25c-1.38,0-2.65-0.23-3.81-0.68s-2.16-1.09-3.02-1.92c-0.85-0.83-1.52-1.79-1.99-2.9
				c-0.48-1.11-0.72-2.33-0.72-3.66s0.24-2.55,0.72-3.66c0.48-1.11,1.15-2.08,2.01-2.9c0.86-0.83,1.87-1.47,3.03-1.92
				c1.16-0.45,2.44-0.68,3.83-0.68c1.41,0,2.71,0.23,3.89,0.69c1.18,0.46,2.17,1.15,2.99,2.07l-1.58,1.58
				c-0.73-0.72-1.53-1.24-2.39-1.57c-0.86-0.33-1.79-0.5-2.8-0.5c-1.02,0-1.97,0.17-2.85,0.51c-0.88,0.34-1.64,0.82-2.28,1.43
				c-0.64,0.61-1.13,1.34-1.48,2.19c-0.35,0.84-0.52,1.76-0.52,2.75c0,0.97,0.17,1.88,0.52,2.72c0.35,0.84,0.84,1.58,1.48,2.2
				c0.64,0.62,1.39,1.1,2.26,1.44c0.87,0.34,1.81,0.51,2.84,0.51c0.95,0,1.87-0.15,2.75-0.45c0.88-0.3,1.69-0.8,2.44-1.5l1.46,1.94
				c-0.89,0.75-1.92,1.32-3.11,1.7C282.98,914.06,281.76,914.25,280.5,914.25z M284.82,911.65V905h2.45v6.98L284.82,911.65z"/>
			<path class="st1" d="M294.71,911.83h10.43v2.22h-12.99v-17.89h12.63v2.22h-10.07V911.83z M294.48,903.88h9.2v2.17h-9.2V903.88z"
				/>
			<path class="st1" d="M314.49,914.25c-1.36,0-2.67-0.21-3.91-0.63c-1.24-0.42-2.22-0.96-2.94-1.62l0.95-1.99
				c0.68,0.6,1.55,1.09,2.61,1.48c1.06,0.39,2.16,0.59,3.3,0.59c1.04,0,1.88-0.12,2.53-0.36c0.65-0.24,1.12-0.57,1.43-0.98
				c0.31-0.42,0.46-0.89,0.46-1.42c0-0.61-0.2-1.11-0.6-1.48c-0.4-0.37-0.92-0.68-1.56-0.91c-0.64-0.23-1.34-0.43-2.11-0.6
				c-0.77-0.17-1.54-0.37-2.31-0.6c-0.78-0.23-1.48-0.52-2.12-0.88c-0.64-0.36-1.15-0.84-1.55-1.44c-0.39-0.6-0.59-1.38-0.59-2.34
				c0-0.92,0.24-1.77,0.73-2.54c0.49-0.77,1.24-1.4,2.25-1.87c1.01-0.47,2.3-0.7,3.87-0.7c1.04,0,2.07,0.14,3.09,0.41
				s1.91,0.66,2.66,1.18l-0.84,2.04c-0.77-0.51-1.58-0.88-2.43-1.11c-0.85-0.23-1.68-0.34-2.48-0.34c-1.01,0-1.83,0.13-2.48,0.38
				c-0.65,0.26-1.12,0.6-1.42,1.02c-0.3,0.43-0.45,0.9-0.45,1.43c0,0.63,0.2,1.13,0.6,1.51s0.92,0.67,1.56,0.89
				c0.64,0.22,1.34,0.42,2.11,0.6c0.77,0.18,1.54,0.38,2.31,0.6c0.78,0.22,1.48,0.51,2.12,0.87c0.64,0.36,1.15,0.83,1.55,1.43
				s0.59,1.36,0.59,2.3c0,0.9-0.25,1.74-0.74,2.52s-1.26,1.4-2.29,1.87C317.36,914.02,316.06,914.25,314.49,914.25z"/>
			<path class="st1" d="M328.71,914.05v-15.67h-6.14v-2.22h14.8v2.22h-6.13v15.67H328.71z"/>
			<path class="st1" d="M337.45,914.05l8.1-17.89h2.53l8.13,17.89h-2.68l-7.23-16.46h1.02l-7.23,16.46H337.45z M340.9,909.58
				l0.69-2.04h10.07l0.74,2.04H340.9z M348.62,894.62c-0.41,0-0.77-0.08-1.09-0.26c-0.32-0.17-0.6-0.37-0.86-0.6
				c-0.26-0.23-0.5-0.43-0.74-0.6c-0.24-0.17-0.48-0.26-0.72-0.26c-0.38,0-0.68,0.14-0.91,0.42s-0.36,0.67-0.4,1.16h-1.38
				c0.03-0.95,0.27-1.71,0.72-2.28c0.44-0.56,1.04-0.84,1.79-0.84c0.41,0,0.78,0.09,1.1,0.27c0.32,0.18,0.61,0.38,0.87,0.61
				c0.26,0.23,0.5,0.43,0.73,0.6c0.23,0.17,0.46,0.25,0.7,0.25c0.38,0,0.68-0.14,0.92-0.41c0.24-0.27,0.37-0.65,0.38-1.12h1.38
				c-0.02,0.9-0.25,1.64-0.7,2.2C349.97,894.34,349.37,894.62,348.62,894.62z"/>
			<path class="st1" d="M366.95,914.25c-1.36,0-2.63-0.23-3.8-0.69c-1.17-0.46-2.18-1.1-3.03-1.93c-0.85-0.83-1.52-1.79-1.99-2.9
				c-0.48-1.11-0.72-2.32-0.72-3.63s0.24-2.52,0.72-3.63c0.48-1.11,1.14-2.08,1.99-2.9c0.85-0.83,1.86-1.47,3.02-1.93
				c1.16-0.46,2.43-0.69,3.81-0.69c1.36,0,2.62,0.23,3.78,0.68c1.16,0.45,2.16,1.09,3.02,1.92c0.85,0.83,1.51,1.8,1.98,2.91
				s0.7,2.33,0.7,3.64c0,1.33-0.23,2.55-0.7,3.66s-1.13,2.07-1.98,2.9c-0.85,0.83-1.86,1.47-3.02,1.92
				C369.57,914.03,368.31,914.25,366.95,914.25z M366.92,911.98c1.01,0,1.93-0.17,2.77-0.51c0.84-0.34,1.58-0.82,2.2-1.44
				c0.62-0.62,1.11-1.35,1.46-2.19c0.35-0.83,0.52-1.75,0.52-2.73s-0.18-1.9-0.52-2.72c-0.35-0.83-0.83-1.55-1.46-2.19
				c-0.62-0.63-1.35-1.12-2.2-1.46c-0.84-0.34-1.77-0.51-2.77-0.51c-0.99,0-1.9,0.17-2.75,0.51c-0.84,0.34-1.58,0.83-2.21,1.46
				c-0.63,0.63-1.12,1.36-1.47,2.19c-0.35,0.83-0.52,1.73-0.52,2.72s0.17,1.9,0.52,2.73c0.35,0.84,0.84,1.56,1.47,2.19
				c0.63,0.62,1.37,1.1,2.21,1.44C365.02,911.81,365.93,911.98,366.92,911.98z"/>
			<path class="st1" d="M387.22,914.05v-17.89h7.54c1.91,0,3.59,0.38,5.05,1.12s2.59,1.8,3.4,3.14c0.81,1.35,1.21,2.91,1.21,4.68
				s-0.41,3.33-1.21,4.68c-0.81,1.35-1.94,2.39-3.4,3.14c-1.46,0.75-3.14,1.12-5.05,1.12H387.22z M389.77,911.83h4.83
				c1.48,0,2.76-0.28,3.85-0.84c1.08-0.56,1.92-1.35,2.52-2.36s0.9-2.19,0.9-3.51c0-1.35-0.3-2.52-0.9-3.53
				c-0.6-1-1.44-1.79-2.52-2.35c-1.08-0.56-2.36-0.84-3.85-0.84h-4.83V911.83z"/>
			<path class="st1" d="M410.89,911.83h10.43v2.22h-12.99v-17.89h12.63v2.22h-10.07V911.83z M410.66,903.88h9.2v2.17h-9.2V903.88z"
				/>
			<path class="st1" d="M440.33,914.25c-1.36,0-2.62-0.23-3.77-0.68s-2.15-1.09-2.99-1.92c-0.84-0.83-1.5-1.79-1.98-2.9
				c-0.48-1.11-0.72-2.33-0.72-3.66s0.24-2.55,0.72-3.66c0.48-1.11,1.14-2.08,1.99-2.9c0.85-0.83,1.85-1.47,3-1.92
				c1.15-0.45,2.41-0.68,3.77-0.68c1.38,0,2.65,0.23,3.82,0.7s2.16,1.16,2.98,2.08l-1.66,1.61c-0.68-0.72-1.45-1.25-2.3-1.6
				c-0.85-0.35-1.76-0.52-2.74-0.52c-1.01,0-1.94,0.17-2.8,0.51c-0.86,0.34-1.61,0.82-2.24,1.43s-1.12,1.34-1.47,2.19
				c-0.35,0.84-0.52,1.76-0.52,2.75s0.17,1.9,0.52,2.75c0.35,0.84,0.84,1.57,1.47,2.19c0.63,0.61,1.38,1.09,2.24,1.43
				c0.86,0.34,1.79,0.51,2.8,0.51c0.97,0,1.88-0.17,2.74-0.52c0.85-0.35,1.62-0.89,2.3-1.62l1.66,1.61
				c-0.82,0.92-1.81,1.62-2.98,2.1C443.01,914.02,441.73,914.25,440.33,914.25z"/>
			<path class="st1" d="M453.37,911.83h10.43v2.22h-12.99v-17.89h12.63v2.22h-10.07V911.83z M453.14,903.88h9.2v2.17h-9.2V903.88z"
				/>
			<path class="st1" d="M467.94,914.05v-17.89h2.1l11.83,14.7h-1.1v-14.7h2.56v17.89h-2.1l-11.83-14.7h1.1v14.7H467.94z"/>
			<path class="st1" d="M492.25,914.05v-15.67h-6.14v-2.22h14.8v2.22h-6.13v15.67H492.25z"/>
			<path class="st1" d="M503.7,914.05v-17.89h6.98c1.57,0,2.91,0.25,4.01,0.74c1.11,0.5,1.96,1.21,2.56,2.15
				c0.6,0.94,0.89,2.05,0.89,3.35s-0.3,2.41-0.89,3.34c-0.6,0.93-1.45,1.64-2.56,2.13c-1.11,0.49-2.45,0.74-4.01,0.74h-5.57
				l1.15-1.18v6.62H503.7z M506.26,907.69l-1.15-1.25h5.5c1.64,0,2.88-0.35,3.72-1.06c0.84-0.71,1.27-1.7,1.27-2.98
				s-0.42-2.27-1.27-2.96c-0.84-0.7-2.08-1.05-3.72-1.05h-5.5l1.15-1.28V907.69z M515.66,914.05l-4.55-6.49h2.73l4.6,6.49H515.66z"
				/>
			<path class="st1" d="M519.58,914.05l8.1-17.89h2.53l8.13,17.89h-2.68l-7.23-16.46h1.02l-7.23,16.46H519.58z M523.03,909.58
				l0.69-2.04h10.07l0.74,2.04H523.03z"/>
			<path class="st1" d="M541,914.05v-17.89h2.56v15.67h9.69v2.22H541z"/>
			<path class="st1" d="M563.06,914.05v-17.89h7.54c1.91,0,3.59,0.38,5.05,1.12s2.59,1.8,3.4,3.14c0.81,1.35,1.21,2.91,1.21,4.68
				s-0.4,3.33-1.21,4.68c-0.81,1.35-1.94,2.39-3.4,3.14c-1.46,0.75-3.14,1.12-5.05,1.12H563.06z M565.61,911.83h4.83
				c1.48,0,2.76-0.28,3.85-0.84s1.92-1.35,2.52-2.36c0.6-1.01,0.89-2.19,0.89-3.51c0-1.35-0.3-2.52-0.89-3.53
				c-0.6-1-1.44-1.79-2.52-2.35s-2.36-0.84-3.85-0.84h-4.83V911.83z"/>
			<path class="st1" d="M586.73,911.83h10.43v2.22h-12.99v-17.89h12.63v2.22h-10.07V911.83z M586.5,903.88h9.2v2.17h-9.2V903.88z"/>
			<path class="st1" d="M608.17,914.05v-17.89h2.1l8.03,13.52h-1.12l7.92-13.52h2.1l0.03,17.89h-2.45l-0.03-14.03h0.59l-7.05,11.86
				h-1.18l-7.11-11.86h0.64v14.03H608.17z"/>
			<path class="st1" d="M629.87,914.05l8.1-17.89h2.53l8.13,17.89h-2.68l-7.23-16.46h1.02l-7.23,16.46H629.87z M633.32,909.58
				l0.69-2.04h10.07l0.74,2.04H633.32z"/>
			<path class="st1" d="M654.85,914.05v-15.67h-6.13v-2.22h14.8v2.22h-6.13v15.67H654.85z"/>
			<path class="st1" d="M668.86,911.83h10.43v2.22H666.3v-17.89h12.63v2.22h-10.07V911.83z M668.62,903.88h9.2v2.17h-9.2V903.88z"/>
			<path class="st1" d="M683.42,914.05v-17.89h6.98c1.57,0,2.91,0.25,4.01,0.74c1.11,0.5,1.96,1.21,2.56,2.15
				c0.6,0.94,0.89,2.05,0.89,3.35s-0.3,2.41-0.89,3.34s-1.45,1.64-2.56,2.13c-1.11,0.49-2.45,0.74-4.01,0.74h-5.57l1.15-1.18v6.62
				H683.42z M685.98,907.69l-1.15-1.25h5.5c1.64,0,2.88-0.35,3.72-1.06c0.84-0.71,1.27-1.7,1.27-2.98s-0.42-2.27-1.27-2.96
				c-0.84-0.7-2.08-1.05-3.72-1.05h-5.5l1.15-1.28V907.69z M695.39,914.05l-4.55-6.49h2.74l4.6,6.49H695.39z"/>
			<path class="st1" d="M702.01,914.05v-17.89h2.56v17.89H702.01z"/>
			<path class="st1" d="M707.22,914.05l8.1-17.89h2.53l8.13,17.89h-2.68l-7.23-16.46h1.02l-7.23,16.46H707.22z M710.67,909.58
				l0.69-2.04h10.07l0.74,2.04H710.67z"/>
			<path class="st1" d="M728.64,914.05v-17.89h2.56v15.67h9.69v2.22H728.64z"/>
			<path class="st1" d="M753.26,911.83h10.43v2.22H750.7v-17.89h12.63v2.22h-10.07V911.83z M753.03,903.88h9.2v2.17h-9.2V903.88z"/>
			<path class="st1" d="M777.26,911.83h10.43v2.22h-12.99v-17.89h12.63v2.22h-10.07V911.83z M777.03,903.88h9.2v2.17h-9.2V903.88z"
				/>
			<path class="st1" d="M797.05,914.25c-1.36,0-2.67-0.21-3.91-0.63c-1.24-0.42-2.22-0.96-2.94-1.62l0.95-1.99
				c0.68,0.6,1.55,1.09,2.61,1.48c1.06,0.39,2.16,0.59,3.3,0.59c1.04,0,1.88-0.12,2.53-0.36c0.65-0.24,1.12-0.57,1.43-0.98
				c0.31-0.42,0.46-0.89,0.46-1.42c0-0.61-0.2-1.11-0.6-1.48c-0.4-0.37-0.92-0.68-1.56-0.91c-0.64-0.23-1.34-0.43-2.11-0.6
				c-0.77-0.17-1.54-0.37-2.31-0.6s-1.48-0.52-2.12-0.88c-0.64-0.36-1.16-0.84-1.55-1.44c-0.39-0.6-0.59-1.38-0.59-2.34
				c0-0.92,0.24-1.77,0.73-2.54c0.49-0.77,1.24-1.4,2.25-1.87c1.01-0.47,2.3-0.7,3.87-0.7c1.04,0,2.07,0.14,3.09,0.41
				s1.91,0.66,2.66,1.18l-0.84,2.04c-0.77-0.51-1.58-0.88-2.43-1.11c-0.85-0.23-1.68-0.34-2.48-0.34c-1.01,0-1.83,0.13-2.48,0.38
				c-0.65,0.26-1.12,0.6-1.42,1.02c-0.3,0.43-0.45,0.9-0.45,1.43c0,0.63,0.2,1.13,0.6,1.51s0.92,0.67,1.56,0.89
				c0.64,0.22,1.34,0.42,2.11,0.6c0.77,0.18,1.54,0.38,2.31,0.6c0.77,0.22,1.48,0.51,2.12,0.87c0.64,0.36,1.15,0.83,1.55,1.43
				c0.39,0.6,0.59,1.36,0.59,2.3c0,0.9-0.25,1.74-0.74,2.52c-0.5,0.78-1.26,1.4-2.29,1.87S798.61,914.25,797.05,914.25z"/>
			<path class="st1" d="M811.26,914.05v-15.67h-6.13v-2.22h14.8v2.22h-6.13v15.67H811.26z"/>
			<path class="st1" d="M825.27,911.83h10.43v2.22h-12.99v-17.89h12.63v2.22h-10.07V911.83z M825.04,903.88h9.2v2.17h-9.2V903.88z"
				/>
			<path class="st1" d="M839.84,914.05v-17.89h6.98c1.57,0,2.91,0.25,4.01,0.74c1.11,0.5,1.96,1.21,2.56,2.15
				c0.6,0.94,0.89,2.05,0.89,3.35s-0.3,2.41-0.89,3.34s-1.45,1.64-2.56,2.13c-1.11,0.49-2.45,0.74-4.01,0.74h-5.57l1.15-1.18v6.62
				H839.84z M842.39,907.69l-1.15-1.25h5.5c1.64,0,2.88-0.35,3.72-1.06c0.84-0.71,1.27-1.7,1.27-2.98s-0.42-2.27-1.27-2.96
				c-0.84-0.7-2.08-1.05-3.72-1.05h-5.5l1.15-1.28V907.69z M851.8,914.05l-4.55-6.49h2.74l4.6,6.49H851.8z"/>
			<path class="st1" d="M858.42,914.05v-17.89h2.56v17.89H858.42z"/>
			<path class="st1" d="M866.34,914.05v-17.89h2.56v15.67h9.69v2.22H866.34z"/>
			<path class="st1" d="M881.53,914.05v-17.89h2.56v17.89H881.53z"/>
			<path class="st1" d="M887.87,914.05v-1.74l12.04-14.93l0.28,1h-12.14v-2.22h14.44v1.74l-11.99,14.93l-0.31-1h12.63v2.22H887.87z"
				/>
			<path class="st1" d="M903.54,914.05l8.1-17.89h2.53l8.13,17.89h-2.68l-7.23-16.46h1.02l-7.23,16.46H903.54z M906.99,909.58
				l0.69-2.04h10.07l0.74,2.04H906.99z"/>
			<path class="st1" d="M932.96,914.25c-1.36,0-2.62-0.23-3.77-0.68c-1.15-0.45-2.15-1.09-2.99-1.92c-0.84-0.83-1.5-1.79-1.98-2.9
				c-0.48-1.11-0.72-2.33-0.72-3.66s0.24-2.55,0.72-3.66c0.48-1.11,1.14-2.08,1.99-2.9c0.85-0.83,1.85-1.47,3-1.92
				c1.15-0.45,2.41-0.68,3.77-0.68c1.38,0,2.65,0.23,3.82,0.7c1.17,0.47,2.16,1.16,2.98,2.08l-1.66,1.61
				c-0.68-0.72-1.45-1.25-2.3-1.6c-0.85-0.35-1.76-0.52-2.74-0.52c-1.01,0-1.94,0.17-2.8,0.51s-1.61,0.82-2.24,1.43
				c-0.63,0.61-1.12,1.34-1.47,2.19c-0.35,0.84-0.52,1.76-0.52,2.75s0.17,1.9,0.52,2.75c0.35,0.84,0.84,1.57,1.47,2.19
				c0.63,0.61,1.38,1.09,2.24,1.43c0.86,0.34,1.79,0.51,2.8,0.51c0.97,0,1.88-0.17,2.74-0.52c0.85-0.35,1.62-0.89,2.3-1.62
				l1.66,1.61c-0.82,0.92-1.81,1.62-2.98,2.1C935.64,914.02,934.35,914.25,932.96,914.25z M931.91,919.78
				c-0.44,0-0.85-0.05-1.23-0.14c-0.38-0.09-0.72-0.23-1.05-0.42l0.54-1.25c0.27,0.15,0.55,0.26,0.83,0.33s0.58,0.1,0.91,0.1
				c0.49,0,0.86-0.09,1.09-0.27c0.23-0.18,0.34-0.43,0.34-0.75c0-0.31-0.12-0.55-0.34-0.73c-0.23-0.18-0.6-0.27-1.11-0.27h-0.69
				l0.64-2.5h1.41l-0.38,1.46c0.73,0.07,1.29,0.3,1.66,0.69c0.38,0.39,0.56,0.87,0.56,1.43c0,0.72-0.29,1.28-0.87,1.7
				C933.63,919.57,932.86,919.78,931.91,919.78z"/>
			<path class="st1" d="M940.73,914.05l8.1-17.89h2.53l8.13,17.89h-2.68l-7.23-16.46h1.02l-7.23,16.46H940.73z M944.18,909.58
				l0.69-2.04h10.07l0.74,2.04H944.18z M951.9,894.62c-0.41,0-0.77-0.08-1.09-0.26c-0.32-0.17-0.6-0.37-0.86-0.6
				c-0.26-0.23-0.5-0.43-0.74-0.6c-0.24-0.17-0.48-0.26-0.72-0.26c-0.38,0-0.68,0.14-0.91,0.42c-0.23,0.28-0.36,0.67-0.4,1.16h-1.38
				c0.03-0.95,0.27-1.71,0.72-2.28c0.44-0.56,1.04-0.84,1.79-0.84c0.41,0,0.78,0.09,1.1,0.27c0.32,0.18,0.61,0.38,0.87,0.61
				c0.26,0.23,0.5,0.43,0.73,0.6c0.23,0.17,0.46,0.25,0.7,0.25c0.38,0,0.68-0.14,0.92-0.41c0.24-0.27,0.37-0.65,0.38-1.12h1.38
				c-0.02,0.9-0.25,1.64-0.7,2.2C953.25,894.34,952.65,894.62,951.9,894.62z"/>
			<path class="st1" d="M970.23,914.25c-1.36,0-2.63-0.23-3.8-0.69c-1.17-0.46-2.18-1.1-3.03-1.93c-0.85-0.83-1.52-1.79-1.99-2.9
				c-0.48-1.11-0.72-2.32-0.72-3.63s0.24-2.52,0.72-3.63c0.48-1.11,1.14-2.08,1.99-2.9c0.85-0.83,1.86-1.47,3.02-1.93
				c1.16-0.46,2.43-0.69,3.81-0.69c1.36,0,2.62,0.23,3.78,0.68c1.16,0.45,2.16,1.09,3.02,1.92c0.85,0.83,1.51,1.8,1.98,2.91
				s0.7,2.33,0.7,3.64c0,1.33-0.23,2.55-0.7,3.66s-1.13,2.07-1.98,2.9c-0.85,0.83-1.86,1.47-3.02,1.92
				C972.85,914.03,971.59,914.25,970.23,914.25z M970.2,911.98c1,0,1.93-0.17,2.77-0.51c0.84-0.34,1.58-0.82,2.2-1.44
				c0.62-0.62,1.11-1.35,1.46-2.19c0.35-0.83,0.52-1.75,0.52-2.73s-0.17-1.9-0.52-2.72c-0.35-0.83-0.83-1.55-1.46-2.19
				c-0.62-0.63-1.36-1.12-2.2-1.46c-0.84-0.34-1.77-0.51-2.77-0.51c-0.99,0-1.9,0.17-2.75,0.51s-1.58,0.83-2.21,1.46
				c-0.63,0.63-1.12,1.36-1.47,2.19c-0.35,0.83-0.52,1.73-0.52,2.72s0.17,1.9,0.52,2.73c0.35,0.84,0.84,1.56,1.47,2.19
				c0.63,0.62,1.37,1.1,2.21,1.44C968.3,911.81,969.21,911.98,970.2,911.98z"/>
		</g>
	</g>
	<linearGradient id="SVGID_1_" gradientUnits="userSpaceOnUse" x1="306.7755" y1="416.734" x2="773.2246" y2="416.734">
		<stop  offset="0.1525" style="stop-color:#20A4DE"/>
		<stop  offset="0.1752" style="stop-color:#1DA1DB"/>
		<stop  offset="0.5731" style="stop-color:#006FA8"/>
		<stop  offset="0.8579" style="stop-color:#01538C"/>
		<stop  offset="1" style="stop-color:#014882"/>
	</linearGradient>
	<path class="st3" d="M734.77,259.88l-156.31-90.24c-23.79-13.75-53.11-13.75-76.92,0l-156.3,90.24
		c-23.8,13.75-38.46,39.14-38.46,66.6v180.5c0,27.48,14.65,52.87,38.46,66.6l156.3,90.26c23.8,13.73,53.13,13.73,76.92,0
		l156.31-90.26c23.79-13.73,38.46-39.12,38.46-66.6v-180.5C773.22,299.02,758.55,273.63,734.77,259.88z"/>
	<g>
		<g>
			<g>
				<path class="st1" d="M431.93,401.58c-1.1-8.31-2.6-19.69-8.47-37.95c-9.04-28.14-18-48.1-18.09-48.29l-2.94-6.51l-3.07,6.44
					c-0.45,0.95-11.01,23.72-0.5,56.46c6.16,19.18,9.32,27.16,11.86,33.58c1.71,4.32,3.06,7.73,4.87,13.37l4.56,14.19
					c1.73,5.38,1.81,7.19,1.93,9.7c0.06,1.32,0.13,2.81,0.42,4.93c0.82,6.07,3.32,14.92,10.7,37.9
					c13.18,41.03,18.77,54.26,23.27,64.88c2.93,6.92,5.24,12.39,8.88,23.73c6.23,19.39,8.83,32.64,10.55,41.41
					c0.86,4.36,1.47,7.51,2.23,9.88c1.08,3.35,2.37,6.78,5.28,8.63c3.52,2.25,8,1.24,11.51,0.12c10.6-3.4,11.16-8.77,8.55-16.89
					c-0.76-2.37-2.09-5.29-3.94-9.33c-3.71-8.13-9.31-20.41-15.54-39.8c-3.64-11.33-4.94-17.13-6.6-24.46
					c-2.53-11.25-5.69-25.26-18.87-66.29c-7.38-22.98-10.5-31.63-13.37-37.04c-1-1.9-1.82-3.15-2.54-4.25
					c-1.37-2.1-2.35-3.62-4.08-9.01L434,412.78C433,409.67,432.53,406.1,431.93,401.58z M502.57,624.37
					c-0.06-0.78-0.18-1.52-0.38-2.21c-0.46-1.45-1.09-2.75-1.86-3.99c0.08,1.46,0.27,2.88,0.26,4.24c0.02,0.73-0.05,1.41-0.2,2.02
					c0.11-1.12-0.09-2.39-0.41-3.65c-0.59-2.3-1.42-4.48-2.41-6.69l-2.99-6.64c-4.03-8.87-7.71-17.93-10.96-27.12
					c-3.21-9.2-6.22-18.49-8.55-27.99c-1.15-4.75-2.15-9.51-3.25-14.23c-1.08-4.73-2.28-9.43-3.51-14.13
					c-5.03-18.76-10.89-37.32-16.77-55.85c-1.47-4.63-2.97-9.26-4.56-13.84c-1.63-4.57-3.23-9.17-5.55-13.41
					c-1.13-2.13-2.64-4.06-3.7-6.29c-1.07-2.21-1.84-4.53-2.57-6.85l-3.4-11.02c0.1,4.64,0.54,11.77,1.94,21.31
					c0.96-0.09,1.82-0.04,2.54,0.11c1.18,0.24,2.03,0.67,2.62,1.06c0.6,0.37,0.94,0.76,1.14,1c0.2,0.25,0.26,0.38,0.26,0.38
					c-2.65-0.99-5.39-1.09-7.84-0.3c-2.46,0.79-4.62,2.47-6.2,4.81c0,0,0.12,0.03,0.37-0.02c0.25-0.04,0.59-0.19,1.11-0.41
					c1.03-0.44,2.52-1.52,5.33-2.5c0.45-0.13,0.87-0.24,1.27-0.33c2.3,14.12,6.62,32.87,14.62,56c9.58,27.68,14.81,51.2,17.5,65.95
					c2.37,6.61,4.46,13.3,6.44,20.03c2.72,9.37,5,18.87,6.89,28.43l1.44,7.14c0.49,2.38,1.08,4.63,1.94,6.84
					c0.47,1.22,1.05,2.37,1.8,3.22c-0.48-0.41-0.94-0.93-1.35-1.54c-0.8-1.1-1.47-2.37-2.26-3.6c0.09,1.46,0.35,2.89,0.81,4.33
					c0.23,0.69,0.57,1.36,0.98,2.03c-0.05-0.06-0.11-0.12-0.16-0.18c-0.85-1.12-1.38-2.32-1.84-3.49c-0.89-2.33-1.54-4.79-2.01-7.18
					l-1.42-7.17c-1.85-9.53-4.08-18.96-6.75-28.29c-2.7-9.31-5.62-18.58-9.19-27.57c-1.79-4.5-3.75-8.95-5.58-13.47
					c-1.84-4.51-3.57-9.07-5.26-13.64c-3.35-9.15-6.45-18.37-9.48-27.62c-3.03-9.25-5.97-18.52-8.85-27.81
					c-1.42-4.65-2.82-9.31-4.12-14.01c-1.26-4.7-2.57-9.42-3.08-14.3c-0.28-2.44-0.14-4.89-0.53-7.26
					c-0.37-2.38-1.05-4.72-1.77-7.04l-4.3-13.94c-2.85-8.27-6.55-16.2-9.67-24.39c-1.55-4.1-3.02-8.22-4.46-12.35l-2.13-6.21
					c-0.7-2.07-1.41-4.14-2.02-6.27l-0.95-3.17c-0.27-1.07-0.51-2.15-0.76-3.22c-0.23-1.08-0.52-2.15-0.69-3.24l-0.53-3.27
					l-0.26-1.64l-0.17-1.65l-0.34-3.3l-0.15-3.31l-0.07-1.66l0.02-1.66c-0.02-4.43,0.38-8.86,1.14-13.23
					c0.78-4.38,1.82-8.66,3.65-12.87l0.99-2.27l1,2.3c3.4,7.81,6.47,15.69,9.42,23.65c2.92,7.96,5.71,15.97,8.19,24.07
					c2.5,8.11,4.66,16.34,6.13,24.71c0.72,4.18,1.27,8.39,1.74,12.6c0.51,4.2,0.86,8.42,2.01,12.51l4.62,13.84
					c0.77,2.3,1.57,4.6,2.66,6.75c1.07,2.15,2.61,4.06,3.8,6.21c2.43,4.27,4.12,8.87,5.83,13.42c1.67,4.57,3.25,9.18,4.81,13.79
					c3.07,9.23,6.08,18.48,9.01,27.76c2.92,9.28,5.78,18.59,8.38,27.98c1.29,4.7,2.54,9.41,3.67,14.15c1.14,4.74,2.14,9.5,3.31,14.2
					c2.33,9.39,5.36,18.63,8.59,27.77c3.26,9.14,6.94,18.1,10.99,26.93l3.02,6.65c1,2.22,1.92,4.6,2.54,7.01
					c0.31,1.23,0.58,2.51,0.54,3.91C502.59,624.22,502.58,624.3,502.57,624.37z"/>
				<path class="st1" d="M414.13,404.02l13.86-4.45c-0.56-3.58-1.18-7.15-1.93-10.69c-1.69-8.27-4-16.39-6.68-24.39
					c-0.82-2.41-1.64-4.82-2.48-7.22c-0.27,5.41-1.11,12.67-3.46,18.69c-2.4,6.16-3.21,12.3-3.45,16.57
					c0.04,0.12,0.08,0.25,0.13,0.37C411.36,396.64,412.76,400.33,414.13,404.02z"/>
				<path class="st1" d="M427.92,401.15L415,405.3c0,0,2.34,2.88,6.91,1.41C426.47,405.25,427.92,401.15,427.92,401.15z"/>
				<path class="st1" d="M413.08,368.88c0.66-2.9,1.09-5.83,1.26-8.78c0.18-2.94,0.18-5.9-0.17-8.83c-1.03,5.8-1.87,11.52-3.22,17.1
					l-1.07,4.22c-0.33,1.44-0.62,2.89-0.84,4.34c-0.45,2.91-0.71,5.86-0.58,8.82c0.82-2.84,1.56-5.65,2.32-8.45
					C411.51,374.48,412.36,371.82,413.08,368.88z"/>
				<path class="st1" d="M454.78,520.23c-2.01-7.57-4.37-15.06-6.91-22.47c-2.56-7.37-4.92-14.8-7.16-22.27
					c-2.21-7.48-4.3-15-6.2-22.6c1.06,7.76,2.6,15.46,4.54,23.06c1.91,7.6,4.2,15.11,6.73,22.53c2.57,7.37,5,14.78,7.34,22.23
					c2.32,7.45,4.57,14.93,6.77,22.45C458.53,535.45,456.83,527.8,454.78,520.23z"/>
			</g>
			<g>
				<path class="st1" d="M675.19,380.49c0.01-0.11,0.03-0.22,0.04-0.33C675.22,380.28,675.2,380.38,675.19,380.49z"/>
				<path class="st1" d="M658.75,378.66c-0.04,0.34-0.1,0.75-0.18,1.21C658.62,379.46,658.7,379.06,658.75,378.66z"/>
				<path class="st1" d="M674.76,382.89c0.11-0.47,0.21-0.95,0.29-1.43C674.96,381.96,674.87,382.44,674.76,382.89z"/>
				<path class="st1" d="M624.09,586.06c10.65-27.81,22.19-63.29,32.17-94.36c22.22-69.18,28-100.37,29.25-108.28
					c2.29-14.55-10.83-48.71-12.34-52.56c-0.44-1.14-1.37-1.96-2.45-2.3c-0.74-0.24-1.55-0.26-2.34-0.02
					c-1.96,0.6-3.13,2.6-2.68,4.6c2.28,10.29,7.67,39.12,5.26,48.81c-0.72,2.91-2.81,9.43-5.58,17.73
					c1.64-8.03,2.71-14.37,2.76-17.36c0.21-13.29-13.09-51.17-13.66-52.77c-0.42-1.2-1.37-2.07-2.5-2.43
					c-0.72-0.23-1.51-0.26-2.29-0.03c-2,0.58-3.19,2.61-2.73,4.64c3.41,14.83,8.56,40.56,7.88,46.5
					c-0.88,7.68-14.34,52.94-26.37,90.39c-8.6,26.76-18.98,60.72-23.02,86.04c-1.23,7.69-5.06,19.19-8.77,30.31
					c-7.9,23.69-12.43,38.61-8.72,45.92c1.02,2,2.63,3.41,4.68,4.07c6.4,2.06,11.73-5.85,16.09-13.85
					C613.09,613.13,618.11,601.67,624.09,586.06z M664.22,382.24c-0.03,1.6-0.37,4.24-0.95,7.65c-4.92,14.5-15.49,44.45-26.53,67.79
					c-3.84,12.02-7.76,24.01-11.5,36.06c-1.99,6.35-3.92,12.73-5.78,19.12c-1.9,6.38-3.66,12.81-5.38,19.24
					c2.88-13.01,6.43-25.87,10.2-38.66c3.74-12.79,7.92-25.45,11.85-38.18c4.04-12.69,7.95-25.43,11.84-38.17
					c1.95-6.37,3.87-12.74,5.72-19.14c0.94-3.19,1.86-6.39,2.74-9.61c0.84-3.22,1.77-6.42,2.31-9.71c1-8.82-7.96-47.82-7.96-47.82
					S664.43,369.51,664.22,382.24z M669.78,332.19c2.71,6.97,5.15,14.03,7.3,21.19c2.12,7.16,4.06,14.41,4.93,21.88
					c0.21,1.87,0.31,3.75,0.22,5.65c-0.1,1.92-0.49,3.74-0.79,5.59c-0.65,3.68-1.42,7.34-2.2,10.99c-1.6,7.3-3.36,14.56-5.22,21.79
					c-7.49,28.92-16.26,57.49-25.55,85.87c-9.3,28.37-18.65,56.75-29.55,84.57c-2.75,6.94-5.61,13.85-8.77,20.63
					c-1.59,3.38-3.24,6.74-5.08,10c-1.86,3.24-3.79,6.5-6.5,9.18c-0.69,0.65-1.44,1.27-2.34,1.68c-0.87,0.43-2.02,0.54-2.92,0.06
					c-0.91-0.41-1.63-1.19-2.05-2.06c-0.44-0.87-0.65-1.82-0.77-2.76c-0.4-3.78,0.32-7.51,1.07-11.16c1.63-7.3,3.97-14.4,6.32-21.48
					c0,0.01-0.01,0.02-0.01,0.03c2.09-6.4,4.34-12.97,6.32-19.16c12.4-30.94,33.93-84.93,39.35-100.33l0,0
					c0-0.01,28.05-78.77,31.21-91.47c0.48-2.08,0.61-4.22,0.66-6.34c0.04-2.13-0.04-4.26-0.18-6.38c-0.28-4.25-0.78-8.48-1.37-12.7
					c-1.21-8.43-2.78-16.81-4.61-25.12c-0.03-0.13,0.04-0.26,0.17-0.31C669.57,331.98,669.73,332.05,669.78,332.19z"/>
				<path class="st1" d="M670.49,335.72c2.14,5.89,4.13,11.84,5.92,17.85c2.08,7.14,4,14.39,4.82,21.77
					c0.2,1.84,0.29,3.69,0.19,5.53c-0.1,1.81-0.49,3.65-0.81,5.48c-0.66,3.67-1.45,7.31-2.24,10.95
					c-1.63,7.28-3.42,14.52-5.31,21.74c-3.8,14.43-7.93,28.77-12.29,43.04c-4.34,14.28-8.96,28.47-13.49,42.69
					c-9.17,28.4-18.39,56.81-29.15,84.65c-2.71,6.95-5.54,13.85-8.66,20.62c-1.57,3.38-3.2,6.73-5.01,9.98
					c-1.78,3.12-3.63,6.26-6.08,8.85c-2.73-12.07,10.14-37.91,25.58-78.61c8.81-23.23,53.02-155.1,53.83-169.7
					c0.61-11.17-4.55-33.47-7.01-43.35C670.69,336.71,670.59,336.22,670.49,335.72z"/>
			</g>
		</g>
		<g>
			<path class="st1" d="M468.98,314.45c4.99,0,9.5-0.44,13.48-0.83c3.11-0.3,5.79-0.56,8.1-0.56c5.45,0,6.87,1.49,7.71,4.44
				c3.17,11.11,27.53,155.88,29.35,171.85c1.49,13.08,1.25,38.61,1.05,59.12c-0.06,5.99-0.11,11.65-0.11,16.23
				c0,20,2.81,31.25,2.93,31.72c0.34,1.34,1.55,2.27,2.93,2.27h2.84c0.9,0,1.75-0.4,2.33-1.09c0.17-0.21,0.32-0.44,0.43-0.68
				c0.11,0.24,0.25,0.47,0.43,0.68c0.57,0.69,1.43,1.09,2.32,1.09h2.84c1.38,0,2.59-0.94,2.93-2.27c0.12-0.47,2.93-11.72,2.93-31.72
				c0-4.58-0.05-10.24-0.11-16.23c-0.2-20.51-0.44-46.04,1.05-59.12c1.82-15.98,26.18-160.75,29.35-171.85
				c0.84-2.94,2.26-4.44,7.71-4.44c2.31,0,4.99,0.26,8.1,0.56c3.98,0.39,8.49,0.83,13.48,0.83c18.35,0,36.93-15.57,36.93-45.34
				c0-30.7-16.21-41.63-31.38-41.63c-17.56,0-30.17,12.35-33.74,33.05c-1.98,11.47-5.66,32.83-11.42,32.83h-21.38
				c-1.52,0-2.8,1.12-2.99,2.63l-1.09,8.29c-0.11,0.83,0.13,1.66,0.66,2.31c0.53,0.65,1.3,1.04,2.13,1.1
				c9.75,0.68,19.55,2.51,21.99,4.06c-0.21,10.13-17.37,90.92-30.72,151.33c-13.35-60.4-30.51-141.2-30.72-151.33
				c2.43-1.54,12.23-3.38,21.99-4.06c0.83-0.06,1.6-0.46,2.13-1.1c0.53-0.65,0.76-1.48,0.66-2.31l-1.09-8.29
				c-0.2-1.5-1.48-2.63-2.99-2.63h-21.38c-5.76,0-9.44-21.36-11.42-32.83c-3.57-20.69-16.18-33.05-33.74-33.05
				c-15.17,0-31.38,10.94-31.38,41.63C432.05,298.87,450.63,314.45,468.98,314.45z M534.41,595.67c0,0-2.84-11.13-2.84-30.98
				c0-5.69,0.08-12.92,0.15-20.75c0.01,0.48,0.02,0.95,0.03,1.43c0.2,9.11,0.49,18.21,0.49,18.21s0.47-9.09,1.02-18.18
				c0.29-4.54,0.57-9.08,0.79-12.49c0.06-0.91,0.12-1.73,0.17-2.46l4.64,5.32c-1.33,5.14-3.37,15.32-3.37,29.57
				c0,21.16,1.75,30.32,1.75,30.32H534.41z M540,593.72c-0.46-3.26-1.48-12.35-1.48-28.37c0-8.02,0.67-14.73,1.48-19.92
				c0.81,5.2,1.48,11.91,1.48,19.92C541.48,581.37,540.46,590.46,540,593.72z M550.3,482.28l-3.75-4.12l21.87-105.32
				C561.47,412.9,553.18,462.75,550.3,482.28z M552.68,296.23c1.68-0.06,4.08-0.2,6.96-0.29c2.88-0.1,6.24-0.18,9.84-0.23
				c0.87-0.03,1.89,0.02,2.63-0.1c0.79-0.13,1.55-0.48,2.23-0.99c1.37-1.02,2.4-2.61,3.25-4.25c0.87-1.64,1.54-3.42,2.15-5.18
				c0.59-1.77,1.13-3.54,1.6-5.26c0.94-3.45,1.69-6.73,2.34-9.53c1.28-5.62,2.14-9.37,2.14-9.37s-0.1,0.96-0.31,2.63
				c-0.23,1.67-0.51,4.06-0.98,6.9c-0.46,2.85-1.05,6.17-1.9,9.69c-0.43,1.76-0.9,3.58-1.5,5.4c-0.61,1.82-1.28,3.65-2.19,5.42
				c-0.93,1.74-2.03,3.48-3.72,4.73c-0.84,0.62-1.84,1.07-2.88,1.2c-1.1,0.12-1.92,0.03-2.84,0.04c-3.6-0.05-6.96-0.13-9.84-0.23
				c-2.88-0.08-5.28-0.22-6.96-0.29c-1.68-0.09-2.64-0.15-2.64-0.15S551,296.32,552.68,296.23z M634.33,236.83
				c0.52,0.47,0.97,1.01,1.45,1.51l0.71,0.76c0.23,0.26,0.42,0.54,0.63,0.81c0.41,0.55,0.82,1.09,1.22,1.63
				c0.39,0.55,0.7,1.14,1.04,1.7c0.32,0.57,0.7,1.11,0.96,1.7c0.51,1.18,1.11,2.3,1.51,3.46c0.38,1.16,0.82,2.27,1.13,3.38
				c0.28,1.12,0.55,2.19,0.8,3.23c0.21,1.04,0.35,2.06,0.51,3.01c0.07,0.48,0.15,0.95,0.22,1.4c0.05,0.46,0.08,0.9,0.11,1.33
				c0.12,1.73,0.32,3.22,0.28,4.46c0.02,2.47,0.03,3.89,0.03,3.89s0.03,1.49,0.04,4.13c0.02,0.66-0.03,1.39-0.1,2.18
				c-0.06,0.79-0.13,1.65-0.21,2.56c-0.04,0.92-0.24,1.88-0.4,2.9c-0.09,0.51-0.18,1.03-0.27,1.57c-0.09,0.54-0.19,1.08-0.35,1.63
				c-0.3,1.1-0.6,2.24-0.92,3.43c-0.43,1.15-0.88,2.34-1.34,3.57c-0.51,1.2-1.15,2.39-1.75,3.64c-0.67,1.21-1.46,2.38-2.22,3.6
				c-1.73,2.29-3.61,4.63-5.99,6.53c-2.27,2.02-4.97,3.59-7.76,4.91c-1.44,0.56-2.86,1.18-4.37,1.51c-1.46,0.47-3.02,0.66-4.55,0.9
				c-0.77,0.13-1.48,0.1-2.21,0.15l-1.09,0.05l-0.27,0.01l-0.19,0l-0.14,0l-0.55-0.01c-1.46-0.02-2.9-0.1-4.31-0.19
				c-5.65-0.36-10.84-1.24-15.27-1.53c-2.21-0.12-4.25-0.11-5.96,0.31c-1.73,0.38-3.07,1.25-3.91,2.2c-0.85,0.95-1.31,1.88-1.6,2.52
				c-0.26,0.65-0.39,1-0.39,1s0.1-0.36,0.29-1.04c0.24-0.66,0.58-1.67,1.41-2.73c0.8-1.07,2.2-2.12,4.01-2.67
				c1.8-0.59,3.93-0.76,6.2-0.74c2.12,0.02,4.4,0.17,6.78,0.36c-0.92-3.52-2.39-9.74-3.52-17.45c-0.55-1.14-1.02-2.27-1.39-3.36
				c-0.66-1.87-1.06-3.64-1.34-5.21c-0.28-1.58-0.41-2.96-0.47-4.1c-0.07-1.14-0.05-2.04-0.03-2.65c0.02-0.61,0.03-0.93,0.03-0.93
				s0.02,0.32,0.07,0.93c0.04,0.61,0.14,1.5,0.29,2.62c0.29,2.24,0.98,5.42,2.46,8.97c0.72,1.78,1.7,3.61,2.89,5.44
				c1.2,1.82,2.67,3.6,4.42,5.17c0.98,0.89,2.07,1.69,3.23,2.39c1.68,0.85,3.47,1.45,5.37,1.74c0.88,0.13,1.75,0.2,2.62,0.2
				c12.16,0,23.53-12.62,26.11-29.65c0,0,0.02-0.35,0.06-1.02c0.03-0.67,0.12-1.64,0.15-2.87c-0.02-1.24,0.06-2.74-0.11-4.45
				c-0.06-0.86-0.11-1.77-0.28-2.71c-0.15-0.95-0.23-1.95-0.49-2.97c-0.22-1.03-0.42-2.1-0.78-3.17c-0.16-0.54-0.32-1.09-0.48-1.65
				c-0.21-0.54-0.41-1.09-0.63-1.65c-0.38-1.13-0.98-2.21-1.5-3.34c-0.29-0.55-0.63-1.08-0.94-1.63l-0.48-0.82
				c-0.18-0.26-0.37-0.52-0.56-0.78c-1.44-2.14-3.33-4.04-5.5-5.57l-0.81-0.58c-0.28-0.17-0.58-0.32-0.88-0.48
				c-0.59-0.3-1.17-0.68-1.78-0.86c-0.63-0.21-1.17-0.49-1.86-0.65l-2.01-0.44c-2.65-0.39-5.38-0.11-7.9,0.7
				c-2.52,0.82-4.89,2.07-6.9,3.69c-0.26,0.19-0.52,0.38-0.77,0.58l-0.71,0.64c-0.46,0.44-0.95,0.83-1.39,1.28
				c-0.84,0.92-1.72,1.77-2.42,2.74c-0.37,0.47-0.73,0.93-1.09,1.39c-0.32,0.48-0.64,0.96-0.95,1.43c-0.66,0.92-1.16,1.89-1.68,2.8
				c-0.55,0.9-0.92,1.84-1.35,2.7c-0.44,0.85-0.76,1.71-1.07,2.51c-0.67,1.58-1.04,3.03-1.42,4.21c-0.34,1.19-0.54,2.15-0.71,2.79
				c-0.16,0.65-0.24,0.99-0.24,0.99s0.05-0.35,0.14-1.01c0.11-0.66,0.17-1.63,0.43-2.85c0.29-1.21,0.55-2.72,1.1-4.38
				c0.25-0.84,0.51-1.73,0.88-2.64c0.36-0.91,0.71-1.89,1.21-2.85c0.48-0.97,0.94-2,1.57-2.98c0.3-0.5,0.6-1.01,0.91-1.53
				c0.35-0.49,0.71-0.99,1.07-1.5c0.69-1.04,1.58-1.97,2.42-2.98c0.44-0.49,0.94-0.93,1.42-1.4l0.73-0.7
				c0.26-0.22,0.53-0.43,0.8-0.64c2.1-1.76,4.61-3.24,7.39-4.15c2.77-0.92,5.82-1.26,8.8-0.85l2.14,0.49
				c0.69,0.16,1.43,0.5,2.14,0.76c0.74,0.24,1.35,0.65,2.01,0.99c0.32,0.18,0.65,0.35,0.97,0.54l0.89,0.64
				c2.39,1.69,4.35,3.85,5.84,6.15c0.19,0.28,0.39,0.56,0.58,0.85l0.49,0.89c0.32,0.59,0.67,1.16,0.94,1.76
				c0.15,0.37,0.31,0.73,0.47,1.09c-0.9-5.34-2.69-11.35-6.23-15.74c-1.57-0.98-3.25-1.81-5.03-2.37c-2.63-0.85-5.39-1.32-8.13-1.36
				c-2.77-0.03-5.43,0.3-7.96,0.97c-2.52,0.67-4.86,1.65-6.94,2.85c-2.09,1.18-3.85,2.65-5.36,4.1c-0.37,0.37-0.73,0.74-1.09,1.09
				c-0.33,0.38-0.65,0.75-0.96,1.12c-0.65,0.71-1.16,1.47-1.68,2.15c-0.98,1.4-1.77,2.68-2.34,3.77c-0.61,1.07-1,1.96-1.28,2.56
				c-0.28,0.6-0.43,0.92-0.43,0.92s0.13-0.33,0.38-0.94c0.26-0.61,0.58-1.53,1.16-2.63c0.53-1.12,1.27-2.44,2.2-3.89
				c0.5-0.71,0.98-1.5,1.61-2.24c0.31-0.38,0.62-0.77,0.94-1.16c0.35-0.37,0.71-0.75,1.08-1.14c1.5-1.51,3.26-3.06,5.38-4.32
				c2.1-1.28,4.49-2.37,7.09-3.06c2.58-0.71,5.4-1.07,8.19-1.07c2.83,0.02,5.7,0.48,8.44,1.35c2.75,0.88,5.27,2.37,7.51,4.09
				C633.26,235.92,633.79,236.38,634.33,236.83z M619.07,240.27c5.35,0.81,9.99,4.58,13.08,10.61c3.25,6.36,4.36,14.39,3.12,22.59
				c-2.3,15.19-12.45,27.08-23.12,27.08c-0.72,0-1.45-0.06-2.17-0.16c-5.35-0.81-9.99-4.58-13.08-10.61
				c-3.25-6.36-4.36-14.39-3.12-22.59c2.3-15.19,12.45-27.08,23.12-27.08C617.62,240.11,618.35,240.16,619.07,240.27z
				 M465.06,229.71c0.59,0.04,1.18,0.05,1.76,0.15c1.16,0.16,2.31,0.3,3.42,0.61c0.55,0.14,1.12,0.23,1.65,0.42
				c0.54,0.18,1.07,0.36,1.6,0.54c4.23,1.47,7.75,3.97,10.46,6.72c2.71,2.76,4.67,5.75,6,8.57c0.39,0.68,0.63,1.39,0.92,2.06
				c0.27,0.67,0.58,1.3,0.79,1.94c0.41,1.28,0.85,2.43,1.12,3.51c0.27,1.08,0.51,2.04,0.72,2.88c0.17,0.84,0.28,1.57,0.38,2.15
				c0.2,1.17,0.31,1.79,0.31,1.79c3.41,19.78,6.76,35.34,14.4,35.34c7.64,0,21.38,0,21.38,0l1.09,8.29c0,0-22.03,1.53-24.65,5.67
				C503.79,314.48,540,477,540,477s2.47-11.99,6.17-29.97c3.76-17.96,8.78-41.92,13.8-65.87c2.54-11.97,5.04-23.95,7.29-35.19
				c1.11-5.62,2.18-11.06,3.2-16.22c0.97-5.16,1.89-10.05,2.51-14.58c0.15-1.13,0.29-2.24,0.35-3.32c0-0.25,0.02-0.55,0.01-0.77
				c-0.01-0.1-0.01-0.2,0-0.31c-0.01-0.06-0.04-0.13-0.05-0.19l-0.03-0.09l-0.01-0.02c-0.24-0.38-0.66-0.67-1.05-0.95
				c-1.72-1.04-3.66-1.57-5.44-2.06c-3.6-0.92-6.81-1.42-9.46-1.81c-5.3-0.76-8.35-1.01-8.35-1.01s0.76,0.05,2.2,0.14
				c1.43,0.11,3.53,0.26,6.19,0.58c2.66,0.32,5.89,0.73,9.55,1.56c1.82,0.45,3.78,0.91,5.68,1.99c0.46,0.31,0.95,0.61,1.3,1.14
				l0.04,0.05c0.01,0,0.08,0.16,0.06,0.12l0.03,0.1c0.02,0.07,0.04,0.12,0.06,0.2l0.06,0.5c0.02,0.33,0,0.58,0,0.87
				c-0.05,1.12-0.17,2.24-0.3,3.39c-0.56,4.57-1.38,9.48-2.27,14.67c-0.9,5.18-1.89,10.64-3,16.27
				c-2.19,11.27-4.62,23.26-7.09,35.25c-2.58,11.96-5.15,23.93-7.57,35.14c-2.44,11.21-4.85,21.64-6.88,30.6
				c-2.03,8.95-3.82,16.39-5.04,21.6C540.71,474.03,540,477,540,477l9.91,8.02c-0.24,1.68-0.42,3.03-0.52,3.98
				c-1.96,17.23-0.96,55.85-0.96,75.7c0,19.85-2.84,30.98-2.84,30.98h-2.84c0,0,1.75-9.16,1.75-30.32c0-16.55-2.75-27.63-3.95-31.67
				c-0.26-0.43-0.53-0.87-0.85-1.28c-0.38-0.5-0.82-1-1.24-1.48c-0.87-0.98-1.78-1.94-2.62-2.85c-0.84-0.91-1.63-1.76-2.31-2.49
				c-0.67-0.74-1.22-1.36-1.61-1.79c-0.38-0.44-0.6-0.69-0.6-0.69s1.07,0.8,2.59,2.08c1.51,1.3,3.49,3.08,5.29,5.06
				c0.28,0.31,0.55,0.62,0.81,0.93c0-3.84,0-21.06,0-31.74c0-12.08-20.85-99.85-28.9-149.18c-7.84-48.03-20.6-100.31-36.2-116.76
				c-0.62-0.25-1.24-0.49-1.89-0.7c-0.51-0.15-1.01-0.31-1.53-0.47c-0.51-0.16-1.05-0.23-1.58-0.35c-1.06-0.26-2.15-0.36-3.26-0.49
				c-0.55-0.09-1.11-0.08-1.67-0.1c-0.54-0.01-1.16-0.05-1.65-0.05c-0.58,0.03-1.17,0.06-1.75,0.09l-0.88,0.05l-0.84,0.13
				c-0.56,0.09-1.12,0.17-1.68,0.26c-0.56,0.15-1.12,0.29-1.68,0.44l-0.85,0.22l-0.82,0.31c-0.55,0.21-1.09,0.42-1.64,0.62
				l-1.57,0.81l-0.79,0.4l-0.74,0.5l-1.48,0.99l-1.37,1.16c-3.67,3.12-6.27,7.45-7.98,12.05c-1.75,4.61-2.68,9.54-3.05,14.44
				c-0.09,1.22-0.1,2.45-0.16,3.67c-0.02,0.59-0.06,1.25-0.05,1.79c0.02,0.61,0.04,1.22,0.06,1.83c0.07,1.21,0.03,2.45,0.18,3.62
				c0.13,1.17,0.27,2.33,0.4,3.48c0.74,4.6,1.94,8.97,3.66,12.89c1.67,3.75,3.88,6.98,6.28,9.66c-3.17-7.88-8.53-24.36-5.26-39.1
				c0.06-0.62,0.13-1.26,0.26-1.91c0.19-1.05,0.34-2.16,0.66-3.28c0.14-0.56,0.29-1.13,0.44-1.71c0.19-0.57,0.39-1.14,0.59-1.72
				c0.35-1.18,0.93-2.32,1.44-3.51c0.28-0.59,0.62-1.15,0.94-1.73l0.49-0.87c0.18-0.28,0.38-0.55,0.57-0.83
				c1.48-2.26,3.43-4.34,5.76-6c2.33-1.66,5.02-2.85,7.98-3.33l2.12-0.16c0.71-0.05,1.47,0.06,2.19,0.09c0.74,0,1.44,0.21,2.15,0.34
				c0.35,0.08,0.71,0.13,1.06,0.22l1.02,0.34c2.71,0.89,5.19,2.3,7.27,4.02c0.27,0.21,0.54,0.41,0.79,0.62l0.73,0.68
				c0.48,0.46,0.97,0.89,1.41,1.37c0.84,0.99,1.73,1.9,2.42,2.93c0.36,0.5,0.72,0.99,1.07,1.47c0.31,0.51,0.62,1.01,0.92,1.5
				c0.64,0.97,1.11,1.98,1.6,2.93c0.52,0.94,0.87,1.91,1.25,2.81c0.39,0.89,0.67,1.78,0.93,2.61c0.58,1.64,0.87,3.13,1.18,4.33
				c0.28,1.21,0.38,2.19,0.5,2.84c0.11,0.66,0.16,1.01,0.16,1.01s-0.08-0.35-0.22-1c-0.15-0.65-0.32-1.61-0.64-2.81
				c-0.36-1.19-0.7-2.65-1.34-4.25c-0.3-0.81-0.6-1.67-1.02-2.54c-0.41-0.87-0.77-1.82-1.31-2.74c-0.51-0.93-1-1.91-1.65-2.85
				c-0.31-0.48-0.62-0.96-0.94-1.46c-0.36-0.47-0.72-0.94-1.09-1.42c-0.7-0.99-1.59-1.85-2.43-2.8c-0.44-0.45-0.93-0.86-1.39-1.31
				l-0.71-0.66c-0.25-0.21-0.52-0.4-0.77-0.6c-2.03-1.65-4.43-2.98-7.02-3.82l-0.97-0.32c-0.33-0.08-0.67-0.13-1.01-0.2
				c-0.67-0.11-1.35-0.31-2.02-0.3c-0.68-0.02-1.34-0.12-2.04-0.07l-2.12,0.18c-2.66,0.42-5.31,1.53-7.52,3.09
				c-2.23,1.56-4.13,3.54-5.58,5.72c-0.19,0.27-0.38,0.53-0.56,0.8l-0.48,0.84c-0.31,0.56-0.66,1.1-0.94,1.66
				c-0.52,1.15-1.12,2.24-1.49,3.39c-0.21,0.57-0.41,1.12-0.62,1.67c-0.16,0.57-0.31,1.12-0.47,1.67c-0.34,1.09-0.52,2.17-0.73,3.21
				c-0.24,1.03-0.3,2.05-0.44,3c-0.15,0.95-0.18,1.87-0.23,2.73c-0.14,1.72-0.03,3.22-0.02,4.46c0.05,1.24,0.18,2.21,0.22,2.87
				c0.06,0.66,0.09,1.02,0.09,1.02c2.58,17.03,13.95,29.65,26.11,29.65c0.87,0,1.75-0.06,2.62-0.2c6.01-0.91,11.03-4.86,14.43-10.63
				c0.01,5.5,8.08,10.95,11.78,18.03c0.45,0.19,0.89,0.41,1.31,0.68c1.03,0.66,1.87,1.64,2.49,2.75c0.62,1.1,1.01,2.37,1.27,3.61
				c0.3,1.25,0.6,2.51,0.86,3.82c0.54,2.61,1.09,5.31,1.62,8.08c1.08,5.54,2.17,11.39,3.27,17.46c2.15,12.13,4.43,25.07,6.72,38
				c2.17,12.96,4.35,25.91,6.39,38.06c2.02,12.15,3.79,23.51,5.33,33.24c1.52,9.73,2.71,17.86,3.51,23.55
				c0.4,2.85,0.71,5.08,0.89,6.61c0.19,1.53,0.29,2.34,0.29,2.34s-0.12-0.81-0.33-2.34c-0.21-1.53-0.55-3.76-1.01-6.59
				c-0.89-5.68-2.29-13.77-3.9-23.49c-3.31-19.42-7.73-45.32-12.15-71.22c-2.24-12.94-4.49-25.89-6.59-38.02
				c-1.09-6.06-2.14-11.92-3.13-17.47c-0.5-2.78-1.02-5.47-1.53-8.07c-0.24-1.3-0.53-2.58-0.81-3.82c-0.25-1.27-0.6-2.42-1.18-3.49
				c-0.56-1.05-1.33-1.96-2.28-2.59c-0.94-0.64-2.02-1.02-3.09-1.26c-2.16-0.48-4.3-0.43-6.29-0.36c-3.99,0.2-7.46,0.61-10.33,0.8
				c-2.87,0.22-5.13,0.3-6.67,0.33c-1.54,0.03-2.36,0.01-2.36,0.01s-0.63-0.02-1.82-0.04c-1.19,0.02-2.93-0.18-5.12-0.59
				c-0.54-0.14-1.11-0.28-1.71-0.43c-0.3-0.08-0.61-0.15-0.92-0.23c-0.3-0.11-0.61-0.22-0.93-0.34c-0.63-0.23-1.29-0.48-1.97-0.73
				c-0.67-0.27-1.33-0.64-2.04-0.98c-0.35-0.17-0.71-0.35-1.07-0.53c-0.36-0.19-0.69-0.43-1.04-0.64c-0.69-0.45-1.44-0.88-2.15-1.39
				c-0.69-0.55-1.39-1.11-2.11-1.69c-0.73-0.56-1.35-1.29-2.05-1.95c-2.68-2.76-5.19-6.17-7.1-10.17c-1.9-4-3.28-8.49-4.06-13.25
				c-0.15-1.2-0.3-2.42-0.45-3.64c-0.16-1.23-0.13-2.42-0.21-3.64c-0.03-0.61-0.05-1.22-0.08-1.83c-0.02-0.69,0.02-1.26,0.03-1.9
				c0.05-1.25,0.04-2.5,0.13-3.76c0.34-5.03,1.24-10.15,3.04-15.02c1.84-4.83,4.66-9.43,8.63-12.75l1.49-1.23l1.61-1.06l0.8-0.52
				l0.85-0.43l1.7-0.85c0.59-0.22,1.18-0.44,1.77-0.66l0.88-0.32l0.91-0.23c0.6-0.15,1.21-0.3,1.81-0.45
				c0.62-0.09,1.24-0.18,1.85-0.27l0.92-0.13l0.88-0.04c0.59-0.03,1.17-0.05,1.75-0.08C463.91,229.64,464.45,229.69,465.06,229.71z
				 M460.93,240.27c0.72-0.11,1.45-0.16,2.17-0.16c10.67,0,20.82,11.9,23.12,27.08c1.24,8.21,0.13,16.23-3.12,22.59
				c-3.08,6.03-7.73,9.8-13.08,10.61c-0.72,0.11-1.45,0.16-2.17,0.16c-10.67,0-20.82-11.9-23.12-27.08
				C442.23,256.9,449.49,242,460.93,240.27z"/>
			<path class="st1" d="M468.98,311.43c0,0,0.45,0,1.3-0.02C469.84,311.41,469.42,311.43,468.98,311.43z"/>
			<path class="st1" d="M511,298.07c2.01,0.13,4.68,0.21,7.35,0.21c2.67,0,5.35-0.09,7.35-0.22c1-0.06,1.84-0.15,2.42-0.19
				c0.59-0.05,0.92-0.1,0.92-0.1s-0.33-0.04-0.92-0.1c-0.58-0.04-1.42-0.13-2.42-0.19c-2.01-0.13-4.68-0.21-7.35-0.22
				c-2.67,0-5.35,0.09-7.35,0.21c-1,0.06-1.84,0.15-2.42,0.19c-0.59,0.05-0.92,0.1-0.92,0.1s0.33,0.04,0.92,0.1
				C509.16,297.92,510,298.02,511,298.07z"/>
			<path class="st1" d="M546.29,529.6c0.08,1.24,0.17,1.94,0.17,1.94s0.08-0.71,0.17-1.94c0.09-1.23,0.23-3,0.32-5.12
				c0.21-4.23,0.31-9.88,0.24-15.53c0-1.42-0.07-2.81-0.06-4.21c0.02-1.37,0.03-2.73,0.08-4.05c0.1-2.63,0.23-5.1,0.35-7.21
				c0.25-4.23,0.41-7.05,0.41-7.05s-0.13,0.7-0.34,1.91c-0.18,1.22-0.45,2.97-0.76,5.07c-0.28,2.1-0.58,4.56-0.79,7.21
				c-0.11,1.32-0.21,2.7-0.25,4.1c-0.03,1.39-0.08,2.81-0.09,4.22c-0.07,5.65,0.03,11.29,0.24,15.53
				C546.06,526.6,546.21,528.36,546.29,529.6z"/>
		</g>
	</g>
</g>
</svg>
